<svg version="1.1" id="Layer_1" xmlns="http://www.w3.org/2000/svg" xmlns:xlink="http://www.w3.org/1999/xlink" x="0px" y="0px"
	 width="100%" viewBox="0 0 1826 398" enable-background="new 0 0 1826 398" xml:space="preserve">
<path fill="none" opacity="1.000000" stroke="none" 
	d="
M1256.000000,399.000000 
	C837.380249,399.000000 419.260498,399.000000 1.070362,399.000000 
	C1.070362,266.395142 1.070362,133.790268 1.070362,1.092685 
	C609.666687,1.092685 1218.333374,1.092685 1826.967529,1.092685 
	C1826.967529,133.739822 1826.967529,266.369934 1826.967529,399.000000 
	C1636.789917,399.000000 1446.645020,399.000000 1256.000000,399.000000 
M1492.500000,376.998444 
	C1598.564941,376.998444 1704.630005,376.998444 1810.627441,376.998444 
	C1810.627441,256.564514 1810.627441,136.997467 1810.627441,17.435099 
	C1210.606201,17.435099 610.956421,17.435099 11.373163,17.435099 
	C11.373163,137.435959 11.373163,257.003021 11.373163,376.998444 
	C504.996368,376.998444 998.248169,376.998444 1492.500000,376.998444 
z"/>
<path fill="none" opacity="1.000000" stroke="none" 
	d="
M1492.000000,376.998444 
	C998.248169,376.998444 504.996368,376.998444 11.373163,376.998444 
	C11.373163,257.003021 11.373163,137.435959 11.373163,17.435099 
	C610.956421,17.435099 1210.606201,17.435099 1810.627441,17.435099 
	C1810.627441,136.997467 1810.627441,256.564514 1810.627441,376.998444 
	C1704.630005,376.998444 1598.564941,376.998444 1492.000000,376.998444 
M552.991882,242.513245 
	C549.934753,255.874954 546.877625,269.236664 543.665710,283.274902 
	C557.087097,283.274902 570.031677,283.346832 582.971375,283.129425 
	C583.938171,283.113190 585.485046,281.144684 585.728088,279.884308 
	C591.249634,251.250900 596.619080,222.588196 602.034790,193.934341 
	C604.111206,182.948196 606.231506,171.970337 608.331848,160.988708 
	C608.703552,161.018463 609.075195,161.048233 609.446899,161.077988 
	C610.083191,201.619507 610.719421,242.161011 611.364685,283.275391 
	C621.817688,283.275391 631.933960,283.369720 642.042175,283.128235 
	C643.044189,283.104309 644.478210,281.186249 644.902466,279.883698 
	C655.392395,247.678223 665.765198,215.434601 676.179138,183.204315 
	C678.517395,175.967438 680.931580,168.755096 683.310852,161.531479 
	C683.614258,161.609467 683.917725,161.687454 684.221130,161.765457 
	C679.215393,202.079056 674.209717,242.392639 669.166260,283.010132 
	C683.169800,283.010132 696.906250,283.010132 711.058716,283.010132 
	C715.987610,225.628952 720.901306,168.425064 725.858582,110.713470 
	C723.826355,110.713470 722.199219,110.713470 720.572083,110.713470 
	C705.075562,110.713470 689.576965,110.848427 674.083923,110.617073 
	C670.286377,110.560371 668.653687,111.616455 667.497498,115.349884 
	C659.432922,141.388870 651.098938,167.344513 642.814026,193.314987 
	C642.266785,195.030472 641.411987,196.647873 640.700256,198.310913 
	C640.370361,198.231277 640.040466,198.151642 639.710571,198.072021 
	C639.710571,169.132217 639.710571,140.192413 639.710571,110.985832 
	C620.665649,110.985832 602.082092,110.985832 583.307251,110.985832 
	C580.177185,124.502571 577.078979,137.850281 573.996094,151.201553 
	C567.031982,181.360931 560.075439,211.522049 552.991882,242.513245 
M1454.148804,147.733948 
	C1451.271484,164.780884 1448.394165,181.827805 1445.516846,198.874741 
	C1445.050415,198.885757 1444.583984,198.896790 1444.117554,198.907806 
	C1439.049072,169.546356 1433.980591,140.184906 1428.944702,111.011780 
	C1413.678467,111.011780 1399.076782,111.011780 1384.299561,111.011780 
	C1375.143677,168.458206 1366.029663,225.641846 1356.876465,283.071045 
	C1370.974976,283.071045 1384.415405,283.071045 1398.248413,283.071045 
	C1403.228027,254.176041 1408.183594,225.420090 1413.139160,196.664124 
	C1414.247070,198.618317 1414.649780,200.542603 1415.002808,202.475983 
	C1419.707397,228.234421 1424.367310,254.001205 1429.211060,279.733398 
	C1429.461670,281.064728 1431.250244,283.107239 1432.351318,283.125854 
	C1446.134766,283.358490 1459.923462,283.278290 1473.946289,283.278290 
	C1483.143921,225.615784 1492.268555,168.411850 1501.470947,110.720192 
	C1488.161011,110.720192 1475.692383,110.636574 1463.229614,110.865311 
	C1462.130493,110.885475 1460.346924,112.809296 1460.103394,114.082718 
	C1458.017822,124.986588 1456.214111,135.944382 1454.148804,147.733948 
M926.754211,277.298340 
	C936.571899,271.387970 943.677551,262.998322 949.013794,252.982330 
	C956.448975,239.026794 959.811707,223.863495 961.932190,208.396347 
	C963.070007,200.096786 963.545410,191.706390 964.321960,183.332947 
	C943.234253,183.332947 923.009888,183.332947 902.545898,183.332947 
	C900.977051,194.871567 899.448730,206.111801 897.822266,218.074005 
	C903.533569,218.074005 908.568481,218.074005 913.661316,218.074005 
	C913.008362,226.242416 911.800476,233.539536 906.619812,239.529648 
	C902.841309,243.898529 896.621216,245.724045 891.284973,243.881805 
	C885.880005,242.015900 884.505554,237.507919 884.029846,232.492966 
	C883.857117,230.672775 883.616028,228.803360 883.838623,227.010086 
	C885.755310,211.567505 887.166077,196.025055 889.998657,180.748047 
	C891.537109,172.450531 894.987305,164.346344 898.636108,156.658417 
	C901.029297,151.616089 906.292114,149.449921 912.143188,150.058380 
	C917.817749,150.648483 920.105835,154.853592 921.862854,159.512863 
	C922.443054,161.051544 922.864014,162.650299 923.498901,164.670547 
	C938.265808,159.233231 952.914429,153.839478 967.723145,148.386765 
	C965.814392,138.239487 961.912048,129.553970 954.912659,122.218040 
	C945.924500,112.797737 934.491821,108.739639 922.084839,107.497200 
	C897.458130,105.031075 875.545166,111.251427 860.234558,131.730484 
	C853.505920,140.730530 848.250977,151.316681 844.475220,161.945801 
	C834.592041,189.767639 831.332947,218.500519 838.083679,247.610031 
	C842.112854,264.983765 851.910400,278.452454 869.766907,283.475006 
	C889.081787,288.907745 908.186646,287.743134 926.754211,277.298340 
M1075.397461,181.071747 
	C1073.797607,157.733887 1072.197754,134.396027 1070.574341,110.714272 
	C1052.969604,110.714272 1035.825562,110.853691 1018.686890,110.612946 
	C1014.575562,110.555191 1012.607605,111.743431 1011.146790,115.686829 
	C994.319946,161.110153 977.294678,206.459946 960.340759,251.836212 
	C956.496277,262.125732 952.723389,272.442017 948.719604,283.281921 
	C964.745422,283.281921 980.054077,283.353241 995.358887,283.145233 
	C996.571899,283.128754 998.422791,281.391113 998.847351,280.085785 
	C1001.192017,272.877411 1003.185669,265.554840 1005.281616,258.333710 
	C1014.885681,258.333710 1024.289429,258.333710 1034.089966,258.333710 
	C1034.089966,266.755554 1034.089966,274.850952 1034.089966,282.871246 
	C1050.537964,282.871246 1066.577881,282.871246 1082.595093,282.871246 
	C1080.252441,248.966217 1077.938110,215.472733 1075.397461,181.071747 
M1515.609497,193.049942 
	C1504.388794,222.955460 1493.167969,252.860992 1481.754028,283.281189 
	C1497.852417,283.281189 1513.160278,283.352631 1528.464478,283.143860 
	C1529.672119,283.127411 1531.508179,281.377930 1531.937622,280.068420 
	C1534.296387,272.873718 1536.307983,265.565216 1538.433228,258.314209 
	C1547.959106,258.314209 1557.360962,258.314209 1567.132080,258.314209 
	C1567.132080,266.720459 1567.132080,274.817993 1567.132080,282.926331 
	C1583.556885,282.926331 1599.603149,282.926331 1615.796875,282.926331 
	C1611.740601,225.433105 1607.710327,168.308334 1603.677734,111.150261 
	C1602.621948,110.958664 1601.986328,110.743309 1601.350342,110.742493 
	C1584.029907,110.720337 1566.708984,110.790276 1549.389771,110.645874 
	C1546.562256,110.622307 1545.783936,112.100639 1544.993286,114.228615 
	C1535.319092,140.268036 1525.606323,166.293045 1515.609497,193.049942 
M458.827881,183.398743 
	C459.475006,182.876862 460.144562,182.380341 460.765930,181.829422 
	C475.023071,169.188034 479.750885,152.245209 473.757019,135.509949 
	C468.327698,120.350876 452.888367,107.093704 434.430054,107.941055 
	C430.122528,108.138786 429.998108,105.798897 430.096649,102.654442 
	C430.463745,90.940277 425.795868,81.136429 417.401367,73.442619 
	C404.152557,61.299759 388.606293,58.279770 372.193756,65.737389 
	C356.020630,73.086250 348.033417,86.494064 347.969910,104.313705 
	C347.873749,131.287415 347.944733,158.261734 347.944702,185.235794 
	C347.944702,187.011551 347.944702,188.787323 347.944702,191.055344 
	C350.496246,191.055344 352.456909,191.055344 354.417542,191.055344 
	C380.892090,191.055328 407.367004,190.974411 433.840942,191.100357 
	C442.787842,191.142899 450.859467,188.772766 458.827881,183.398743 
M255.230698,86.931854 
	C253.756149,93.636703 252.281601,100.341545 250.706863,107.501999 
	C249.404648,107.609833 247.444839,107.840988 245.478775,107.924385 
	C223.410553,108.860504 205.434296,128.261292 206.009674,150.546204 
	C206.583527,172.772369 225.042160,191.029831 247.029114,191.052536 
	C274.352936,191.080750 301.676819,191.059326 329.000671,191.059326 
	C330.621124,191.059326 332.241608,191.059326 333.845978,191.059326 
	C334.055664,190.120010 334.248627,189.658524 334.248901,189.196915 
	C334.266510,159.540649 334.457367,129.882568 334.174866,100.229027 
	C334.068298,89.045799 328.911774,79.665535 320.483124,72.502800 
	C298.613312,53.917667 268.895813,60.329823 255.230698,86.931854 
M1284.661621,110.714485 
	C1282.268555,110.973099 1279.485840,109.621651 1278.877686,114.036034 
	C1276.864136,128.651917 1274.354248,143.199066 1272.068848,157.777924 
	C1266.443481,193.661697 1260.823975,229.546402 1255.236206,265.436035 
	C1254.333130,271.236877 1253.604370,277.064850 1252.779297,282.992737 
	C1281.601929,282.992737 1309.677856,282.992737 1337.929077,282.992737 
	C1340.185791,268.254974 1342.402710,253.778015 1344.692505,238.825317 
	C1332.087280,238.825317 1320.140381,238.825317 1307.755737,238.825317 
	C1308.988770,230.727921 1310.154053,223.075516 1311.370239,215.089661 
	C1322.633057,215.089661 1333.750977,215.089661 1345.284058,215.089661 
	C1347.407715,201.311356 1349.486450,187.825195 1351.632446,173.902817 
	C1340.078125,173.902817 1329.123535,173.902817 1317.834595,173.902817 
	C1319.066772,166.709946 1320.230225,159.918777 1321.450195,152.797577 
	C1332.512451,152.797577 1343.318359,152.716843 1354.121582,152.848389 
	C1357.230591,152.886215 1358.918335,152.462357 1359.205688,148.680405 
	C1359.605835,143.413651 1361.001709,138.228317 1361.850098,132.988480 
	C1363.026489,125.722649 1364.090332,118.438560 1365.270752,110.714462 
	C1338.211548,110.714462 1311.917358,110.714462 1284.661621,110.714485 
M347.940491,278.499390 
	C347.941711,282.996460 347.892059,287.494263 347.952850,291.990509 
	C348.227814,312.324310 364.240509,329.705017 384.710571,331.926544 
	C404.713409,334.097351 424.375092,320.544525 428.984894,301.106628 
	C430.115356,296.339844 430.277771,291.343536 430.897064,286.357208 
	C434.915497,286.089661 438.972229,286.306580 442.805603,285.483490 
	C464.126343,280.905457 477.522400,262.652374 476.012299,240.616226 
	C474.796082,222.869446 457.746735,204.596939 440.178406,204.175476 
	C409.886444,203.448746 379.567139,203.861099 349.259277,203.812347 
	C348.973022,203.811874 348.686401,204.041672 347.940491,204.360123 
	C347.940491,228.618515 347.940491,253.059113 347.940491,278.499390 
M824.752502,174.418030 
	C813.564453,174.418030 802.376343,174.418030 790.890015,174.418030 
	C792.071838,167.837250 793.367798,162.495132 793.883789,157.078720 
	C794.219849,153.551849 795.533142,152.667648 798.854370,152.730911 
	C808.682800,152.918076 818.519714,152.909592 828.346313,152.678375 
	C829.845398,152.643112 832.430298,151.207520 832.614624,150.102814 
	C834.765991,137.210464 836.553345,124.257370 838.479736,111.026413 
	C809.830688,111.026413 781.598267,111.026413 753.234314,111.026413 
	C744.070801,168.496216 734.952637,225.681641 725.768738,283.279419 
	C753.908325,283.279419 781.216553,283.326294 808.522766,283.113403 
	C809.652100,283.104614 811.438599,280.810516 811.762512,279.328400 
	C813.035583,273.502380 813.876282,267.580017 814.819153,261.684113 
	C816.009399,254.241196 817.142700,246.789200 818.368164,238.906555 
	C805.545654,238.906555 793.420593,238.906555 780.922607,238.906555 
	C782.392761,230.744385 783.790283,222.985458 785.245544,214.905945 
	C796.499573,214.905945 807.443176,214.905945 818.481812,214.905945 
	C819.609436,208.028839 820.700195,201.515610 821.740295,194.994308 
	C822.786316,188.435593 823.781799,181.868820 824.752502,174.418030 
M307.600494,329.220306 
	C323.797760,323.071930 334.108246,308.362946 334.116943,291.327026 
	C334.130829,264.172791 334.120697,237.018570 334.120697,209.864334 
	C334.120697,207.956772 334.120697,206.049194 334.120697,204.120346 
	C332.246521,204.004395 331.255280,203.889603 330.264038,203.889511 
	C302.276947,203.886963 274.289856,203.889923 246.302795,203.917023 
	C244.477646,203.918777 242.613892,203.917877 240.833572,204.259476 
	C220.789993,208.105423 205.930313,225.019028 206.102158,244.728424 
	C206.286575,265.877625 221.320160,281.943268 239.406799,285.186554 
	C243.418640,285.905975 247.521454,286.118042 251.562515,286.561493 
	C250.355377,320.569427 282.384491,338.979309 307.600494,329.220306 
M1153.004272,232.236862 
	C1152.193481,231.772263 1151.382690,231.307663 1150.233643,230.649231 
	C1148.046509,243.645233 1145.975220,256.210510 1143.804565,268.758575 
	C1142.408325,276.829834 1142.291138,276.934540 1149.660645,280.215820 
	C1165.132568,287.104797 1181.343872,288.125885 1197.941650,286.114410 
	C1239.352661,281.095795 1254.024048,246.445847 1247.461914,214.217514 
	C1244.898438,201.627914 1236.617554,192.886658 1228.324463,183.968277 
	C1222.810059,178.038284 1217.171265,172.057495 1212.726074,165.345825 
	C1208.095947,158.354797 1212.088257,149.736679 1220.474731,149.069901 
	C1226.795288,148.567352 1233.497437,150.153625 1239.712402,151.923798 
	C1244.331665,153.239426 1248.442505,156.340012 1252.767212,158.638901 
	C1252.916382,158.442520 1253.083252,158.321274 1253.108521,158.175491 
	C1255.371704,145.110092 1257.680420,132.051773 1259.754272,118.956261 
	C1259.898193,118.047295 1258.520264,116.370499 1257.463745,115.876099 
	C1236.976807,106.288597 1215.816528,103.541252 1194.182007,111.244141 
	C1163.586670,122.137474 1151.001221,162.004456 1170.072876,187.922241 
	C1175.554565,195.371582 1182.908325,201.415329 1188.859863,208.556793 
	C1192.832764,213.324127 1196.896851,218.493301 1199.059570,224.189102 
	C1203.182495,235.047012 1196.363037,243.869217 1184.858154,244.005951 
	C1173.018433,244.146667 1163.030884,239.214951 1153.004272,232.236862 
M1148.291016,195.554260 
	C1148.291016,192.938431 1148.291016,190.322586 1148.291016,187.560440 
	C1135.487915,187.560440 1123.278198,187.560440 1110.989746,187.560440 
	C1110.989746,197.175568 1110.989746,206.425201 1110.989746,215.765961 
	C1123.511353,215.765961 1135.750244,215.765961 1148.291016,215.765961 
	C1148.291016,209.161942 1148.291016,202.852234 1148.291016,195.554260 
z"/>
<path fill="#FEFFFE" opacity="1.000000" stroke="none" 
	d="
M553.053833,242.097855 
	C560.075439,211.522049 567.031982,181.360931 573.996094,151.201553 
	C577.078979,137.850281 580.177185,124.502571 583.307251,110.985832 
	C602.082092,110.985832 620.665649,110.985832 639.710571,110.985832 
	C639.710571,140.192413 639.710571,169.132217 639.710571,198.072021 
	C640.040466,198.151642 640.370361,198.231277 640.700256,198.310913 
	C641.411987,196.647873 642.266785,195.030472 642.814026,193.314987 
	C651.098938,167.344513 659.432922,141.388870 667.497498,115.349884 
	C668.653687,111.616455 670.286377,110.560371 674.083923,110.617073 
	C689.576965,110.848427 705.075562,110.713470 720.572083,110.713470 
	C722.199219,110.713470 723.826355,110.713470 725.858582,110.713470 
	C720.901306,168.425064 715.987610,225.628952 711.058716,283.010132 
	C696.906250,283.010132 683.169800,283.010132 669.166260,283.010132 
	C674.209717,242.392639 679.215393,202.079056 684.221130,161.765457 
	C683.917725,161.687454 683.614258,161.609467 683.310852,161.531479 
	C680.931580,168.755096 678.517395,175.967438 676.179138,183.204315 
	C665.765198,215.434601 655.392395,247.678223 644.902466,279.883698 
	C644.478210,281.186249 643.044189,283.104309 642.042175,283.128235 
	C631.933960,283.369720 621.817688,283.275391 611.364685,283.275391 
	C610.719421,242.161011 610.083191,201.619507 609.446899,161.077988 
	C609.075195,161.048233 608.703552,161.018463 608.331848,160.988708 
	C606.231506,171.970337 604.111206,182.948196 602.034790,193.934341 
	C596.619080,222.588196 591.249634,251.250900 585.728088,279.884308 
	C585.485046,281.144684 583.938171,283.113190 582.971375,283.129425 
	C570.031677,283.346832 557.087097,283.274902 543.665710,283.274902 
	C546.877625,269.236664 549.934753,255.874954 553.053833,242.097855 
z"/>
<path fill="#FEFFFE" opacity="1.000000" stroke="none" 
	d="
M1454.237549,147.309998 
	C1456.214111,135.944382 1458.017822,124.986588 1460.103394,114.082718 
	C1460.346924,112.809296 1462.130493,110.885475 1463.229614,110.865311 
	C1475.692383,110.636574 1488.161011,110.720192 1501.470947,110.720192 
	C1492.268555,168.411850 1483.143921,225.615784 1473.946289,283.278290 
	C1459.923462,283.278290 1446.134766,283.358490 1432.351318,283.125854 
	C1431.250244,283.107239 1429.461670,281.064728 1429.211060,279.733398 
	C1424.367310,254.001205 1419.707397,228.234421 1415.002808,202.475983 
	C1414.649780,200.542603 1414.247070,198.618317 1413.139160,196.664124 
	C1408.183594,225.420090 1403.228027,254.176041 1398.248413,283.071045 
	C1384.415405,283.071045 1370.974976,283.071045 1356.876465,283.071045 
	C1366.029663,225.641846 1375.143677,168.458206 1384.299561,111.011780 
	C1399.076782,111.011780 1413.678467,111.011780 1428.944702,111.011780 
	C1433.980591,140.184906 1439.049072,169.546356 1444.117554,198.907806 
	C1444.583984,198.896790 1445.050415,198.885757 1445.516846,198.874741 
	C1448.394165,181.827805 1451.271484,164.780884 1454.237549,147.309998 
z"/>
<path fill="#FEFFFE" opacity="1.000000" stroke="none" 
	d="
M926.453735,277.509308 
	C908.186646,287.743134 889.081787,288.907745 869.766907,283.475006 
	C851.910400,278.452454 842.112854,264.983765 838.083679,247.610031 
	C831.332947,218.500519 834.592041,189.767639 844.475220,161.945801 
	C848.250977,151.316681 853.505920,140.730530 860.234558,131.730484 
	C875.545166,111.251427 897.458130,105.031075 922.084839,107.497200 
	C934.491821,108.739639 945.924500,112.797737 954.912659,122.218040 
	C961.912048,129.553970 965.814392,138.239487 967.723145,148.386765 
	C952.914429,153.839478 938.265808,159.233231 923.498901,164.670547 
	C922.864014,162.650299 922.443054,161.051544 921.862854,159.512863 
	C920.105835,154.853592 917.817749,150.648483 912.143188,150.058380 
	C906.292114,149.449921 901.029297,151.616089 898.636108,156.658417 
	C894.987305,164.346344 891.537109,172.450531 889.998657,180.748047 
	C887.166077,196.025055 885.755310,211.567505 883.838623,227.010086 
	C883.616028,228.803360 883.857117,230.672775 884.029846,232.492966 
	C884.505554,237.507919 885.880005,242.015900 891.284973,243.881805 
	C896.621216,245.724045 902.841309,243.898529 906.619812,239.529648 
	C911.800476,233.539536 913.008362,226.242416 913.661316,218.074005 
	C908.568481,218.074005 903.533569,218.074005 897.822266,218.074005 
	C899.448730,206.111801 900.977051,194.871567 902.545898,183.332947 
	C923.009888,183.332947 943.234253,183.332947 964.321960,183.332947 
	C963.545410,191.706390 963.070007,200.096786 961.932190,208.396347 
	C959.811707,223.863495 956.448975,239.026794 949.013794,252.982330 
	C943.677551,262.998322 936.571899,271.387970 926.453735,277.509308 
z"/>
<path fill="#FEFFFE" opacity="1.000000" stroke="none" 
	d="
M1075.510742,181.525482 
	C1077.938110,215.472733 1080.252441,248.966217 1082.595093,282.871246 
	C1066.577881,282.871246 1050.537964,282.871246 1034.089966,282.871246 
	C1034.089966,274.850952 1034.089966,266.755554 1034.089966,258.333710 
	C1024.289429,258.333710 1014.885681,258.333710 1005.281616,258.333710 
	C1003.185669,265.554840 1001.192017,272.877411 998.847351,280.085785 
	C998.422791,281.391113 996.571899,283.128754 995.358887,283.145233 
	C980.054077,283.353241 964.745422,283.281921 948.719604,283.281921 
	C952.723389,272.442017 956.496277,262.125732 960.340759,251.836212 
	C977.294678,206.459946 994.319946,161.110153 1011.146790,115.686829 
	C1012.607605,111.743431 1014.575562,110.555191 1018.686890,110.612946 
	C1035.825562,110.853691 1052.969604,110.714272 1070.574341,110.714272 
	C1072.197754,134.396027 1073.797607,157.733887 1075.510742,181.525482 
M1026.499390,222.946640 
	C1029.259766,222.946640 1032.020142,222.946640 1034.984131,222.946640 
	C1034.984131,202.727112 1034.984131,183.170181 1034.984131,163.613251 
	C1034.730103,163.551147 1034.476074,163.489059 1034.222168,163.426956 
	C1028.189331,183.147354 1022.156494,202.867752 1016.013977,222.946640 
	C1019.559143,222.946640 1022.547668,222.946640 1026.499390,222.946640 
M1035.634888,161.548187 
	C1035.634888,161.548187 1035.416260,161.410202 1035.416260,161.410202 
	C1035.416260,161.410202 1035.439697,161.690918 1035.634888,161.548187 
z"/>
<path fill="#FEFFFE" opacity="1.000000" stroke="none" 
	d="
M1515.756592,192.685867 
	C1525.606323,166.293045 1535.319092,140.268036 1544.993286,114.228615 
	C1545.783936,112.100639 1546.562256,110.622307 1549.389771,110.645874 
	C1566.708984,110.790276 1584.029907,110.720337 1601.350342,110.742493 
	C1601.986328,110.743309 1602.621948,110.958664 1603.677734,111.150261 
	C1607.710327,168.308334 1611.740601,225.433105 1615.796875,282.926331 
	C1599.603149,282.926331 1583.556885,282.926331 1567.132080,282.926331 
	C1567.132080,274.817993 1567.132080,266.720459 1567.132080,258.314209 
	C1557.360962,258.314209 1547.959106,258.314209 1538.433228,258.314209 
	C1536.307983,265.565216 1534.296387,272.873718 1531.937622,280.068420 
	C1531.508179,281.377930 1529.672119,283.127411 1528.464478,283.143860 
	C1513.160278,283.352631 1497.852417,283.281189 1481.754028,283.281189 
	C1493.167969,252.860992 1504.388794,222.955460 1515.756592,192.685867 
M1568.217651,197.501175 
	C1568.217651,185.852554 1568.217651,174.203934 1568.217651,162.555313 
	C1568.025024,162.497757 1567.832397,162.440201 1567.639893,162.382645 
	C1561.529785,182.407593 1555.419800,202.432526 1549.249756,222.653992 
	C1555.896240,222.653992 1561.798584,222.653992 1568.217651,222.653992 
	C1568.217651,214.408020 1568.217651,206.454559 1568.217651,197.501175 
z"/>
<path fill="#A4DAB9" opacity="1.000000" stroke="none" 
	d="
M458.529755,183.602371 
	C450.859467,188.772766 442.787842,191.142899 433.840942,191.100357 
	C407.367004,190.974411 380.892090,191.055328 354.417542,191.055344 
	C352.456909,191.055344 350.496246,191.055344 347.944702,191.055344 
	C347.944702,188.787323 347.944702,187.011551 347.944702,185.235794 
	C347.944733,158.261734 347.873749,131.287415 347.969910,104.313705 
	C348.033417,86.494064 356.020630,73.086250 372.193756,65.737389 
	C388.606293,58.279770 404.152557,61.299759 417.401367,73.442619 
	C425.795868,81.136429 430.463745,90.940277 430.096649,102.654442 
	C429.998108,105.798897 430.122528,108.138786 434.430054,107.941055 
	C452.888367,107.093704 468.327698,120.350876 473.757019,135.509949 
	C479.750885,152.245209 475.023071,169.188034 460.765930,181.829422 
	C460.144562,182.380341 459.475006,182.876862 458.529755,183.602371 
z"/>
<path fill="#FFFFFF" opacity="1.000000" stroke="none" 
	d="
M255.417877,86.598007 
	C268.895813,60.329823 298.613312,53.917667 320.483124,72.502800 
	C328.911774,79.665535 334.068298,89.045799 334.174866,100.229027 
	C334.457367,129.882568 334.266510,159.540649 334.248901,189.196915 
	C334.248627,189.658524 334.055664,190.120010 333.845978,191.059326 
	C332.241608,191.059326 330.621124,191.059326 329.000671,191.059326 
	C301.676819,191.059326 274.352936,191.080750 247.029114,191.052536 
	C225.042160,191.029831 206.583527,172.772369 206.009674,150.546204 
	C205.434296,128.261292 223.410553,108.860504 245.478775,107.924385 
	C247.444839,107.840988 249.404648,107.609833 250.706863,107.501999 
	C252.281601,100.341545 253.756149,93.636703 255.417877,86.598007 
z"/>
<path fill="#FEFFFF" opacity="1.000000" stroke="none" 
	d="
M1285.142334,110.714478 
	C1311.917358,110.714462 1338.211548,110.714462 1365.270752,110.714462 
	C1364.090332,118.438560 1363.026489,125.722649 1361.850098,132.988480 
	C1361.001709,138.228317 1359.605835,143.413651 1359.205688,148.680405 
	C1358.918335,152.462357 1357.230591,152.886215 1354.121582,152.848389 
	C1343.318359,152.716843 1332.512451,152.797577 1321.450195,152.797577 
	C1320.230225,159.918777 1319.066772,166.709946 1317.834595,173.902817 
	C1329.123535,173.902817 1340.078125,173.902817 1351.632446,173.902817 
	C1349.486450,187.825195 1347.407715,201.311356 1345.284058,215.089661 
	C1333.750977,215.089661 1322.633057,215.089661 1311.370239,215.089661 
	C1310.154053,223.075516 1308.988770,230.727921 1307.755737,238.825317 
	C1320.140381,238.825317 1332.087280,238.825317 1344.692505,238.825317 
	C1342.402710,253.778015 1340.185791,268.254974 1337.929077,282.992737 
	C1309.677856,282.992737 1281.601929,282.992737 1252.779297,282.992737 
	C1253.604370,277.064850 1254.333130,271.236877 1255.236206,265.436035 
	C1260.823975,229.546402 1266.443481,193.661697 1272.068848,157.777924 
	C1274.354248,143.199066 1276.864136,128.651917 1278.877686,114.036034 
	C1279.485840,109.621651 1282.268555,110.973099 1285.142334,110.714478 
z"/>
<path fill="#FEFFFF" opacity="1.000000" stroke="none" 
	d="
M347.940491,277.999542 
	C347.940491,253.059113 347.940491,228.618515 347.940491,204.360123 
	C348.686401,204.041672 348.973022,203.811874 349.259277,203.812347 
	C379.567139,203.861099 409.886444,203.448746 440.178406,204.175476 
	C457.746735,204.596939 474.796082,222.869446 476.012299,240.616226 
	C477.522400,262.652374 464.126343,280.905457 442.805603,285.483490 
	C438.972229,286.306580 434.915497,286.089661 430.897064,286.357208 
	C430.277771,291.343536 430.115356,296.339844 428.984894,301.106628 
	C424.375092,320.544525 404.713409,334.097351 384.710571,331.926544 
	C364.240509,329.705017 348.227814,312.324310 347.952850,291.990509 
	C347.892059,287.494263 347.941711,282.996460 347.940491,277.999542 
z"/>
<path fill="#FEFFFF" opacity="1.000000" stroke="none" 
	d="
M824.776001,174.861816 
	C823.781799,181.868820 822.786316,188.435593 821.740295,194.994308 
	C820.700195,201.515610 819.609436,208.028839 818.481812,214.905945 
	C807.443176,214.905945 796.499573,214.905945 785.245544,214.905945 
	C783.790283,222.985458 782.392761,230.744385 780.922607,238.906555 
	C793.420593,238.906555 805.545654,238.906555 818.368164,238.906555 
	C817.142700,246.789200 816.009399,254.241196 814.819153,261.684113 
	C813.876282,267.580017 813.035583,273.502380 811.762512,279.328400 
	C811.438599,280.810516 809.652100,283.104614 808.522766,283.113403 
	C781.216553,283.326294 753.908325,283.279419 725.768738,283.279419 
	C734.952637,225.681641 744.070801,168.496216 753.234314,111.026413 
	C781.598267,111.026413 809.830688,111.026413 838.479736,111.026413 
	C836.553345,124.257370 834.765991,137.210464 832.614624,150.102814 
	C832.430298,151.207520 829.845398,152.643112 828.346313,152.678375 
	C818.519714,152.909592 808.682800,152.918076 798.854370,152.730911 
	C795.533142,152.667648 794.219849,153.551849 793.883789,157.078720 
	C793.367798,162.495132 792.071838,167.837250 790.890015,174.418030 
	C802.376343,174.418030 813.564453,174.418030 824.776001,174.861816 
z"/>
<path fill="#A4DAB9" opacity="1.000000" stroke="none" 
	d="
M307.249512,329.405487 
	C282.384491,338.979309 250.355377,320.569427 251.562515,286.561493 
	C247.521454,286.118042 243.418640,285.905975 239.406799,285.186554 
	C221.320160,281.943268 206.286575,265.877625 206.102158,244.728424 
	C205.930313,225.019028 220.789993,208.105423 240.833572,204.259476 
	C242.613892,203.917877 244.477646,203.918777 246.302795,203.917023 
	C274.289856,203.889923 302.276947,203.886963 330.264038,203.889511 
	C331.255280,203.889603 332.246521,204.004395 334.120697,204.120346 
	C334.120697,206.049194 334.120697,207.956772 334.120697,209.864334 
	C334.120697,237.018570 334.130829,264.172791 334.116943,291.327026 
	C334.108246,308.362946 323.797760,323.071930 307.249512,329.405487 
z"/>
<path fill="#FEFFFE" opacity="1.000000" stroke="none" 
	d="
M1153.298462,232.483276 
	C1163.030884,239.214951 1173.018433,244.146667 1184.858154,244.005951 
	C1196.363037,243.869217 1203.182495,235.047012 1199.059570,224.189102 
	C1196.896851,218.493301 1192.832764,213.324127 1188.859863,208.556793 
	C1182.908325,201.415329 1175.554565,195.371582 1170.072876,187.922241 
	C1151.001221,162.004456 1163.586670,122.137474 1194.182007,111.244141 
	C1215.816528,103.541252 1236.976807,106.288597 1257.463745,115.876099 
	C1258.520264,116.370499 1259.898193,118.047295 1259.754272,118.956261 
	C1257.680420,132.051773 1255.371704,145.110092 1253.108521,158.175491 
	C1253.083252,158.321274 1252.916382,158.442520 1252.767212,158.638901 
	C1248.442505,156.340012 1244.331665,153.239426 1239.712402,151.923798 
	C1233.497437,150.153625 1226.795288,148.567352 1220.474731,149.069901 
	C1212.088257,149.736679 1208.095947,158.354797 1212.726074,165.345825 
	C1217.171265,172.057495 1222.810059,178.038284 1228.324463,183.968277 
	C1236.617554,192.886658 1244.898438,201.627914 1247.461914,214.217514 
	C1254.024048,246.445847 1239.352661,281.095795 1197.941650,286.114410 
	C1181.343872,288.125885 1165.132568,287.104797 1149.660645,280.215820 
	C1142.291138,276.934540 1142.408325,276.829834 1143.804565,268.758575 
	C1145.975220,256.210510 1148.046509,243.645233 1150.233643,230.649231 
	C1151.382690,231.307663 1152.193481,231.772263 1153.298462,232.483276 
z"/>
<path fill="#FCFEFD" opacity="1.000000" stroke="none" 
	d="
M1148.291016,196.048401 
	C1148.291016,202.852234 1148.291016,209.161942 1148.291016,215.765961 
	C1135.750244,215.765961 1123.511353,215.765961 1110.989746,215.765961 
	C1110.989746,206.425201 1110.989746,197.175568 1110.989746,187.560440 
	C1123.278198,187.560440 1135.487915,187.560440 1148.291016,187.560440 
	C1148.291016,190.322586 1148.291016,192.938431 1148.291016,196.048401 
z"/>
</svg>